<svg xmlns="http://www.w3.org/2000/svg" version="1.1" xmlns:xlink="http://www.w3.org/1999/xlink" xmlns:svgjs="http://svgjs.dev/svgjs" width="100%" height="100%" viewBox="0 0 1000 600"><rect width="1000" height="600" x="0" y="0" fill="#050505"/><g><circle r="166.66666666666666" cx="345.6772104899088" cy="367.89948314045614" fill="#616161" transform="matrix(0.6982826724178004,0,0,0.6982826724178003,0,43.102152051053324)"/><path d="M295.7696204705953 441.00298112815386L295.7696204705953 441.00298112815386Q264.4916588916683 441.00298112815386 249.46539936447857 422.9422924925608Q234.43913983728882 404.8816038569677 234.43913983728882 377.57174188133735L234.43913983728882 377.57174188133735Q234.43913983728882 364.32529173503804 237.59027775755385 352.7711193607329Q240.74141567781888 341.21694698642773 243.48407275656808 336.3735312941685Q246.19755263235186 331.5592928048747 247.88983040434604 330.59644510701594Q249.55293097337483 329.66277461212263 261.10710334768 329.66277461212263L261.10710334768 329.66277461212263L265.1043801539421 329.66277461212263Q265.1043801539421 319.1589815445725 269.2183657720659 311.3978455557716Q273.3031741872243 303.60753236400524 279.80969044851224 299.84367318146644L279.80969044851224 299.84367318146644Q292.00576128805653 292.8994988756972 302.9180351971225 292.8994988756972L302.9180351971225 292.8994988756972Q361.33079553388734 292.8994988756972 361.33079553388734 366.426050348548L361.33079553388734 366.426050348548Q361.33079553388734 389.3301546764004 353.540482342121 407.18660289123557L353.540482342121 407.18660289123557Q349.13472469434305 417.2527379143044 341.9863099678159 424.5178614526933Q334.8670724442541 431.75380778811666 322.9919508373294 436.392983059618Q311.1168292304047 441.00298112815386 295.7696204705953 441.00298112815386ZM334.2251739790149 364.73377257655386L334.2251739790149 364.73377257655386Q334.2251739790149 315.3659451590683 304.8145533898746 315.3659451590683L304.8145533898746 315.3659451590683Q296.4115189358345 315.3659451590683 291.8890524761949 320.2093608513275Q287.3665860165553 325.05277654358673 287.3665860165553 332.49296329976806Q287.3665860165553 339.9623272589148 292.0932928969528 350.0284622819837Q296.81999977735035 360.12377450801796 301.66341546960956 366.0175695070322L301.66341546960956 366.0175695070322L306.27341353814546 371.882187303081Q306.27341353814546 374.4206039610723 298.51227754934456 376.6088941834786Q290.7511415605436 378.8263616088503 286.1119662890423 378.8263616088503L286.1119662890423 378.8263616088503Q285.0615869822873 378.8263616088503 281.822917453126 374.8290848025881Q278.5550707209993 370.831807996326 274.23684468211763 362.54548235414757Q269.9477958462013 354.2299795090037 268.05127765344923 345.009983371932L268.05127765344923 345.009983371932Q264.9001397331842 348.161121292197 263.00362154043205 357.81877547375Q261.10710334768 367.47642965530304 261.10710334768 376.5213625745823L261.10710334768 376.5213625745823Q261.10710334768 394.14439316569417 270.9981751529563 406.6614132378581Q280.86006975526726 419.14925610705654 296.0030380943187 419.14925610705654L296.0030380943187 419.14925610705654Q334.2251739790149 419.14925610705654 334.2251739790149 364.73377257655386ZM403.55020822484573 384.48673898414114L403.55020822484573 387.4336364836483L403.75444864560365 395.1947724724492L403.75444864560365 411.18387969749773Q403.75444864560365 433.6503259808688 402.90830975960654 434.4964648668659L402.90830975960654 434.4964648668659Q400.19482988382276 437.20994474264967 393.4548959988115 438.6979820938859Q386.74413931676554 440.1568422421568 382.42591327788386 440.1568422421568Q378.13686444196753 440.1568422421568 378.13686444196753 439.544120979883L378.13686444196753 439.544120979883Q379.5957245902384 430.0907072190879 379.5957245902384 408.4412226187485L379.5957245902384 408.4412226187485L378.98300332796464 361.174153814773Q378.98300332796464 348.161121292197 380.0333826347196 347.11074198544196L380.0333826347196 347.11074198544196Q382.3383816689876 344.7765657482086 387.9987590442785 342.9967563673182Q393.6883136225348 341.21694698642773 398.61926092369026 341.21694698642773Q403.55020822484573 341.21694698642773 403.55020822484573 342.26732629318275L403.55020822484573 342.26732629318275Q402.90830975960654 347.3149824061999 402.90830975960654 352.36263851921706Q402.90830975960654 357.3811174292688 403.55020822484573 357.3811174292688L403.55020822484573 357.3811174292688L404.1921066900849 356.97263658775296Q405.24248599683995 355.51377643948206 407.34324461035 353.29630901411036Q409.44400322385997 351.07884158873867 416.27146871776756 347.40251401509613Q423.0989342116751 343.7261864414536 429.2845012403435 343.7261864414536Q435.47006826901196 343.7261864414536 439.78829430789364 345.9436538668253Q444.1065203467753 348.161121292197 446.82000022255914 351.31225921246204Q449.5626573013083 354.4633971327271 451.54670710295665 360.3280149287759Q453.5599341075705 366.2218099277901 454.6103134143255 371.2694660408073Q455.66069272108047 376.287944950859 456.27341398335426 384.69097940489905L456.27341398335426 384.69097940489905Q456.9153124485934 396.2451517792042 456.9153124485934 414.1015999940394L456.9153124485934 414.1015999940394L456.27341398335426 438.6979820938859Q456.27341398335426 440.1568422421568 449.35841688055035 441.5281707815314Q442.4142425747812 442.899499320906 438.21272534776114 442.899499320906L438.21272534776114 442.899499320906L431.2685510419919 441.84912001415097Q433.3693096555019 422.9422924925608 433.3693096555019 405.1733758866218Q433.3693096555019 387.4336364836483 431.064310621234 378.50541237623065Q428.7593115869661 369.5771882688131 421.81513728119677 369.5771882688131Q414.900140178393 369.5771882688131 410.58191413951124 373.37022465431727Q406.2928653035949 377.13408383685606 405.0090683731166 380.92712022236026L405.0090683731166 380.92712022236026L403.55020822484573 384.48673898414114Z " fill="#050505" transform="matrix(0.6982826724178004,0,0,0.6982826724178003,0,43.102152051053324)"/><path d="M595.6772227658712 401.65161569858293L595.6772227658712 401.65161569858293L596.4959692203317 328.0491327062233Q596.4959692203317 311.9847626169818 596.0724796749212 306.31000270847994Q595.6772227658712 300.6070101636175 595.6772227658712 300.21175325456755L595.6772227658712 300.21175325456755Q595.6772227658712 298.17900343659676 602.4812881288012 295.5251356186904Q609.2853534917313 292.89950043714475 614.593089127544 292.89950043714475Q619.8725921269959 292.89950043714475 619.8725921269959 293.69001425524453L619.8725921269959 293.69001425524453Q618.8562172180106 301.228128163553 618.8562172180106 346.5415095224855L618.8562172180106 346.5415095224855L618.4327276726 396.34388006277027Q618.4327276726 410.375500334041 618.8562172180106 413.6222535155221L618.8562172180106 413.6222535155221Q619.8725921269959 422.5719992418658 624.756838217398 429.8842520592886L624.756838217398 429.8842520592886Q624.756838217398 431.9170018772594 616.3999778546291 436.4059910586116Q608.071350128221 440.86674760360313 602.1707291288335 440.86674760360313L602.1707291288335 440.86674760360313Q600.5614688562732 440.86674760360313 598.5287190383025 434.7684981496907Q596.4959692203317 428.67024869577824 596.0724796749212 424.2094921507868Q595.6772227658712 419.72050296943456 595.6772227658712 401.65161569858293ZM651.8884017600362 309.16149898091123Q657.4784637594558 309.16149898091123 660.922845395462 312.80350907144225Q664.3954596678287 316.473751798334 664.3954596678287 322.3743727977215Q664.3954596678287 328.2467611607483 659.8217725773944 332.4251913421327Q655.2480854869601 336.6036215235172 649.6580234875404 336.6036215235172Q644.0679614881207 336.6036215235172 640.7082777611968 333.04630934206824Q637.3485940342728 329.4889971606193 637.3485940342728 323.58837616123185Q637.3485940342728 317.68775516184434 641.8093505792642 313.4246270713778Q646.2983397606165 309.16149898091123 651.8884017600362 309.16149898091123ZM662.362709849858 349.3930057949168L662.1368487589723 359.75438333929577L661.7415918499224 392.70186997223925Q661.7415918499224 408.54037897059516 662.645036213465 415.9655623334607Q663.5767132133683 423.39074569632623 667.8398413038349 429.8842520592886L667.8398413038349 429.8842520592886Q667.8398413038349 431.9170018772594 659.5112135774267 436.4059910586116Q651.1825858510185 440.86674760360313 645.2819648516311 440.86674760360313L645.2819648516311 440.86674760360313Q643.4468434881851 440.86674760360313 641.6117221247393 434.7684981496907Q639.7766007612934 428.67024869577824 639.2684133068008 423.19311724180136Q638.760225852308 417.68775315146377 638.760225852308 386.18013097291623Q638.760225852308 354.67250879436875 640.2000903067039 351.8492451582982L640.2000903067039 351.8492451582982Q644.8584753062205 348.17900243140645 656.6597173049954 348.17900243140645L656.6597173049954 348.17900243140645Q661.3463349408726 348.17900243140645 662.362709849858 349.3930057949168L662.362709849858 349.3930057949168ZM706.659716299805 381.9170028824497L706.659716299805 384.76849915488094L706.85734475433 392.2783804268287L706.85734475433 407.7498651524954Q706.85734475433 429.4889951502387 706.0668309362303 430.3077416046992L706.0668309362303 430.3077416046992Q703.4129631183239 432.9333767862448 696.9194567553617 434.3732412406408Q690.3977177560387 435.7848730586761 686.247520211015 435.7848730586761Q682.0690900296305 435.7848730586761 682.0690900296305 435.19198769510126L682.0690900296305 435.19198769510126Q683.4807218476658 426.04461351423265 683.4807218476658 405.095997334589L683.4807218476658 405.095997334589L682.8878364840909 359.3591264302459Q682.8878364840909 346.76737061337116 683.9042113930764 345.7509957043858L683.9042113930764 345.7509957043858Q686.1345896655721 343.4923847955293 691.611721119549 341.7701939775263Q697.1170852098866 340.0480031595232 701.8884007548459 340.0480031595232Q706.659716299805 340.0480031595232 706.659716299805 341.06437806850863L706.659716299805 341.06437806850863Q706.0668309362303 345.9486241589107 706.0668309362303 350.8328702493128Q706.0668309362303 355.6888837033541 706.659716299805 355.6888837033541L706.659716299805 355.6888837033541L707.2808342997406 355.29362679430426Q708.297209208726 353.88199497626897 710.3299590266968 351.7363146128554Q712.3627088446676 349.59063424944173 718.9691457530728 346.0333220679928Q725.5755826614779 342.4760098865439 731.5609015699474 342.4760098865439Q737.5744531147777 342.4760098865439 741.7246506598015 344.6216902499575Q745.903080841186 346.76737061337116 748.5287160227316 349.8164953403274Q751.1825838406379 352.8656200672836 753.1024031131659 358.5403799757854Q755.0504550220546 364.243372520648 756.0668299310399 369.12761861105Q757.0832048400254 373.9836320650914 757.6760902036002 382.11463133697464L757.6760902036002 382.11463133697464Q758.2972082035358 393.2947553358141 758.2972082035358 410.5731287885659L758.2972082035358 410.5731287885659L757.6760902036002 434.3732412406408Q757.6760902036002 435.7848730586761 750.9849553861129 437.11180696762926Q744.265587932265 438.4387408765824 740.2000882963234 438.4387408765824L740.2000882963234 438.4387408765824L733.5089534788361 437.422365967597Q735.541703296807 419.12761760585977 735.541703296807 401.93394206219Q735.541703296807 384.76849915488094 733.2830923879505 376.12931242850505Q731.0527141154548 367.49012570212915 724.3615792979675 367.49012570212915Q717.6422118441196 367.49012570212915 713.4637816627352 371.1603684290209Q709.3135841177115 374.8023785195519 708.099580754201 378.4726212464436L708.099580754201 378.4726212464436L706.659716299805 381.9170028824497ZM823.5428308331265 365.85263279320816L823.5428308331265 365.85263279320816Q823.5428308331265 359.9802444301814 817.2469529246891 359.9802444301814L817.2469529246891 359.9802444301814Q808.9183251982809 359.9802444301814 802.6224472898436 368.5065006111145Q796.2983367450455 377.0327567920476 796.2983367450455 389.0316272453475L796.2983367450455 389.0316272453475Q796.2983367450455 391.8831235177788 797.1170831995059 391.8831235177788L797.1170831995059 391.8831235177788Q804.4293360169288 391.6854950632538 814.000199743208 383.4415652459278Q823.5428308331265 375.22586806496247 823.5428308331265 365.85263279320816ZM841.2446938312889 430.5053700592241L841.2446938312889 430.5053700592241Q834.3276979229161 435.19198769510126 814.1978281977329 435.19198769510126Q794.0679584725498 435.19198769510126 783.311324019121 423.19311724180136Q772.5264569293313 411.19424678850146 772.5264569293313 391.17730760876117Q772.5264569293313 371.1603684290209 785.4287717461739 356.42293224873254Q798.3310865630164 341.68549606844414 821.7077094696806 341.68549606844414L821.7077094696806 341.68549606844414Q831.2785731959598 341.68549606844414 839.2966419224002 346.76737061337116Q847.3429432852013 351.8492451582982 847.3429432852013 364.5539315206157Q847.3429432852013 377.25861788293327 836.2475171954441 389.65274524528303Q825.1803237420474 402.04687260763285 806.0668289258497 408.54037897059516L806.0668289258497 408.54037897059516Q806.0668289258497 410.9966183339765 811.0357729253338 412.5211806974546Q816.0329495611788 414.04574306093275 820.9171956515809 414.04574306093275L820.9171956515809 414.04574306093275Q836.3604477408868 414.04574306093275 845.3101934672305 408.54037897059516L845.3101934672305 408.54037897059516Q845.5078219217555 408.34275051607017 845.9030788308054 408.34275051607017Q846.3265683762158 408.34275051607017 846.3265683762158 412.21062169748683L846.3265683762158 412.21062169748683Q846.3265683762158 424.0118636962618 841.2446938312889 430.5053700592241ZM984.5535559982308 314.01751243495266L984.5535559982308 314.01751243495266L984.9488129072806 352.8656200672836Q984.9488129072806 393.7182448812247 982.9160630893098 402.04687260763285L982.9160630893098 402.04687260763285Q978.8505634533682 418.5064996059242 967.0493214545932 426.9480578777752Q955.2763120921791 435.38961614962614 939.2119420029376 435.38961614962614L939.2119420029376 435.38961614962614Q932.2949460945646 435.38961614962614 926.704884095145 434.17561278611583Q921.1148220957252 432.9333767862448 919.0820722777544 431.71937342273446L919.0820722777544 431.71937342273446L917.0493224597835 430.3077416046992Q909.9346980968858 435.7848730586761 900.1944385524423 435.7848730586761L900.1944385524423 435.7848730586761Q898.1616887344715 435.7848730586761 897.9358276435858 435.5872446041511L897.9358276435858 435.5872446041511L897.145313825486 425.22586705977216Q897.145313825486 398.17900142621613 899.3756920979819 386.18013097291623L899.3756920979819 386.18013097291623L900.1944385524423 381.7193744279248Q901.4084419159526 380.08188151900384 907.70431982439 378.16206224647584Q914.0001977328274 376.2422429739479 918.8844438232294 376.2422429739479L918.8844438232294 376.2422429739479Q918.8844438232294 398.6024909716267 924.1639468226814 406.2253027890173Q929.4434498221333 413.84811460640776 940.228316911923 413.84811460640776L940.228316911923 413.84811460640776Q959.5394401826454 413.84811460640776 959.5394401826454 377.85150324650806L959.5394401826454 377.85150324650806L959.7370686371705 345.9486241589107Q959.7370686371705 321.1321367978504 957.5066903646747 318.9017585253547L957.5066903646747 318.9017585253547Q953.4411907287331 314.8362588894131 940.6235738209728 314.8362588894131L940.6235738209728 314.8362588894131L939.833060002873 314.8362588894131Q939.0143135484125 314.44100198036324 939.0143135484125 310.7707592534715Q939.0143135484125 307.12874916294044 940.0306884573979 303.2608779815238Q941.0470633663833 299.3930068001071 941.752879275401 298.6871908910895Q942.4586951844186 297.9813749820718 948.1616877292811 296.73913898220076L948.1616877292811 296.73913898220076Q965.2424327275081 293.4923858007196 986.9815627252515 293.4923858007196L986.9815627252515 293.4923858007196Q989.8330589976827 293.4923858007196 989.8330589976827 293.9158753461302L989.8330589976827 293.9158753461302Q989.8330589976827 298.7718888001716 987.1791911797764 306.31000270847994Q984.5535559982308 313.8198839804277 984.5535559982308 314.01751243495266ZM1063.2096808991566 407.12874715255987L1063.2096808991566 407.12874715255987Q1063.2096808991566 418.11124269687434 1052.9330012638598 426.75042942325024Q1042.6845542649237 435.38961614962614 1030.7986143570665 439.1445567856Q1018.8844418128488 442.89949742157387 1009.9629287228659 442.89949742157387L1009.9629287228659 442.89949742157387Q1008.9465538138804 442.89949742157387 1007.1114324504346 440.4714906945532L1007.1114324504346 440.4714906945532Q1002.0295579055075 433.75212324070526 1002.0295579055075 424.8023775143615L1002.0295579055075 424.8023775143615L1002.0295579055075 423.39074569632623Q1017.8680669038633 423.39074569632623 1026.2249272666322 417.9136142423494Q1034.5535549930405 412.4082501520118 1034.5535549930405 406.5076291526243L1034.5535549930405 406.5076291526243Q1034.5535549930405 402.66799060756836 1029.4716804481134 398.3766298807411Q1024.3898059031862 394.11350179027454 1018.2915564492739 390.8667486087934Q1012.1933069953616 387.61999542731223 1007.1114324504346 382.2275618824175Q1002.0295579055075 376.8351283375227 1002.0295579055075 370.9345073381352L1002.0295579055075 370.9345073381352Q1002.0295579055075 358.5403799757854 1017.4728099948136 348.17900243140645Q1032.9160620841194 337.8176248870275 1050.3920639913963 337.8176248870275L1050.3920639913963 337.8176248870275Q1052.4248138093672 337.8176248870275 1055.699799627209 343.4076868864472Q1058.94655280869 348.99774888586694 1059.1441812632152 354.8983698852544L1059.1441812632152 354.8983698852544Q1055.0786816272735 354.8983698852544 1046.9476823553903 357.32637661227506L1046.9476823553903 357.32637661227506Q1030.8833122661488 362.40825115720213 1030.8833122661488 369.9181324291498L1030.8833122661488 369.9181324291498Q1030.8833122661488 375.22586806496247 1046.7500539008654 384.3732422458311L1046.7500539008654 384.3732422458311Q1052.8483033547777 387.81762388183716 1057.9301778997049 393.9158733357496Q1063.0120524446318 400.014122789662 1063.2096808991566 407.12874715255987ZM1160.5840437072306 388.212880790887Q1160.5840437072306 407.52400406160973 1148.8957322538984 421.6685548783232Q1137.207420800566 435.7848730586761 1117.1904816208257 435.7848730586761Q1097.145309804725 435.7848730586761 1085.7675573513604 423.39074569632623Q1074.389804897996 410.9966183339765 1074.389804897996 391.17730760876117Q1074.389804897996 371.35799688354575 1088.506123078349 355.9994427033219Q1102.6506738950625 340.66912115945877 1126.6201821653017 340.66912115945877L1126.6201821653017 340.66912115945877Q1136.3886743461057 341.06437806850863 1137.207420800566 341.88312452296907Q1138.0261672550266 342.70187097742956 1138.0261672550266 345.7509957043858Q1138.0261672550266 348.80012043134195 1137.405049255091 352.442130521873L1137.405049255091 352.442130521873Q1140.4541739820475 352.442130521873 1145.2254895270066 355.9994427033219Q1149.9968050719658 359.55675488477084 1153.045929798922 363.22699761166257Q1156.0950545258784 366.8690077021936 1158.3536654347347 373.47544461059874Q1160.5840437072306 380.08188151900384 1160.5840437072306 388.212880790887L1160.5840437072306 388.212880790887ZM1130.9115428921289 373.9836320650914L1130.9115428921289 373.9836320650914Q1126.2249252562517 370.9345073381352 1121.76416871126 370.9345073381352L1121.76416871126 370.9345073381352L1120.1266758023394 370.9345073381352Q1119.7314188932894 370.14399352003545 1119.7314188932894 367.49012570212915Q1119.7314188932894 364.8362578842228 1120.3243042568643 362.40825115720213L1120.3243042568643 362.40825115720213Q1111.995676530456 362.40825115720213 1104.7681216221154 369.9181324291498Q1097.5687993501356 377.4562463374582 1097.5687993501356 390.8667486087934L1097.5687993501356 390.8667486087934Q1097.5687993501356 406.73349024350995 1107.7325484399894 412.8317396974224L1107.7325484399894 412.8317396974224Q1111.6004196214062 415.25974642444305 1118.4044849843362 415.25974642444305Q1125.2085503472663 415.25974642444305 1131.193869255736 408.96386851600573Q1137.207420800566 402.66799060756836 1137.207420800566 390.2456306088579Q1137.207420800566 377.85150324650806 1130.9115428921289 373.9836320650914ZM1201.4366685211717 381.9170028824497L1201.4366685211717 384.76849915488094L1201.6342969756965 392.2783804268287L1201.6342969756965 407.7498651524954Q1201.6342969756965 429.4889951502387 1200.815550521236 430.3077416046992L1200.815550521236 430.3077416046992Q1198.1899153396903 432.9333767862448 1191.6681763403672 434.3732412406408Q1185.174669977405 435.7848730586761 1180.9962397960207 435.7848730586761Q1176.846042250997 435.7848730586761 1176.846042250997 435.19198769510126L1176.846042250997 435.19198769510126Q1178.257674069032 426.04461351423265 1178.257674069032 405.095997334589L1178.257674069032 405.095997334589L1177.6647887054573 359.3591264302459Q1177.6647887054573 346.76737061337116 1178.6811636144425 345.7509957043858L1178.6811636144425 345.7509957043858Q1180.9115418869385 343.4923847955293 1186.3886733409154 341.7701939775263Q1191.8940374312529 340.0480031595232 1196.6653529762123 340.0480031595232Q1201.4366685211717 340.0480031595232 1201.4366685211717 341.06437806850863L1201.4366685211717 341.06437806850863Q1200.815550521236 345.9486241589107 1200.815550521236 350.8328702493128Q1200.815550521236 355.6888837033541 1201.4366685211717 355.6888837033541L1201.4366685211717 355.6888837033541L1202.0577865211071 355.29362679430426Q1203.0741614300925 353.88199497626897 1205.1069112480634 351.7363146128554Q1207.1396610660343 349.59063424944173 1213.7460979744392 346.0333220679928Q1220.3525348828443 342.4760098865439 1226.3378537913138 342.4760098865439Q1232.3231726997835 342.4760098865439 1236.501602881168 344.6216902499575Q1240.6800330625524 346.76737061337116 1243.3056682440981 349.8164953403274Q1245.9595360620044 352.8656200672836 1247.8793553345324 358.5403799757854Q1249.827407243421 364.243372520648 1250.8437821524064 369.12761861105Q1251.8601570613916 373.9836320650914 1252.4530424249667 382.11463133697464L1252.4530424249667 382.11463133697464Q1253.0741604249022 393.2947553358141 1253.0741604249022 410.5731287885659L1253.0741604249022 410.5731287885659L1252.4530424249667 434.3732412406408Q1252.4530424249667 435.7848730586761 1245.7619076074795 437.11180696762926Q1239.0425401536315 438.4387408765824 1234.9770405176898 438.4387408765824L1234.9770405176898 438.4387408765824L1228.2576730638418 437.422365967597Q1230.2904228818127 419.12761760585977 1230.2904228818127 401.93394206219Q1230.2904228818127 384.76849915488094 1228.060044609317 376.12931242850505Q1225.8296663368212 367.49012570212915 1219.1102988829732 367.49012570212915Q1212.419164065486 367.49012570212915 1208.2407338841015 371.1603684290209Q1204.0905363390777 374.8023785195519 1202.8483003392068 378.4726212464436L1202.8483003392068 378.4726212464436L1201.4366685211717 381.9170028824497Z " fill="#616161" transform="matrix(0.6982826724178004,0,0,0.6982826724178003,0,43.102152051053324)"/></g></svg>